<svg width="116" height="32" viewBox="0 0 116 32" fill="none" xmlns="http://www.w3.org/2000/svg">
<g id="Logo Ch&#195;&#173;nh 1" clip-path="url(#clip0_337_1830)">
<g id="Layer 1">
<g id="Group">
<g id="Group_2">
<g id="Group_3">
<path id="Vector" d="M18.6356 13.7815V31.5009H12.5612V7.01674H0V1.94971H6.79946C13.3341 1.94971 18.6312 7.24686 18.6312 13.7815H18.6356Z" fill="#FCFCFD"/>
<path id="Vector_2" d="M31.1621 8.79688H37.1019V31.4965H31.1621V8.79688Z" fill="#FCFCFD"/>
<path id="Vector_3" d="M39.0688 8.79688H56.7014V13.4123H39.0688V8.79688ZM44.9131 8.79688H50.8528V31.5008H44.9131V8.79688Z" fill="#FCFCFD"/>
<g id="Group_4">
<path id="Vector_4" d="M86.0486 8.79639V16.499C84.0731 18.2618 82.1062 19.9508 80.1089 21.3228V8.79639H86.0486Z" fill="#FCFCFD"/>
<path id="Vector_5" d="M95.032 19.1128V31.496H89.0923V23.9714C91.7713 21.5486 94.9322 19.1823 95.032 19.1128Z" fill="#FCFCFD"/>
<path id="Vector_6" d="M76.7305 26.1597C76.5134 26.2856 76.2833 26.4072 76.0445 26.52C74.7983 27.0932 73.3351 27.4015 71.6548 27.4319C73.4002 27.3841 75.0849 26.9195 76.7305 26.164V26.1597Z" fill="#F04438"/>
<path id="Vector_7" d="M115.356 17.6106V31.4961H109.417V18.6614C109.417 16.7423 108.952 15.3355 108.023 14.4367C107.098 13.5379 105.583 13.0907 103.481 13.0907C103.386 13.0907 103.282 13.0907 103.186 13.0907C102.109 13.1167 101.106 13.2904 100.177 13.603C100.177 13.603 100.176 13.603 100.173 13.603C98.4229 14.1371 96.7166 15.0532 95.0362 16.2082C94.9234 16.2864 91.7147 18.7005 89.0965 21.0668C88.0848 21.983 87.0688 22.9165 86.0484 23.837C84.1337 25.565 82.2015 27.228 80.2216 28.6001C77.3125 30.6147 74.2949 31.9954 71.0688 31.9954C70.8126 31.9954 70.5695 31.9868 70.335 31.9737C70.0528 31.9868 69.7619 31.9954 69.4666 31.9954C67.2132 31.9954 65.1638 31.5005 63.3272 30.5105C61.4818 29.5205 60.0229 28.1355 58.9418 26.3553C57.8607 24.5751 57.3223 22.5083 57.3223 20.1637C57.3223 17.8191 57.8693 15.6741 58.9635 13.9026C60.0577 12.1398 61.547 10.7634 63.4183 9.77346C65.2854 8.77916 67.4172 8.28852 69.7879 8.28852C72.4061 8.28852 74.5163 8.81824 76.1141 9.86898C76.6091 10.1946 77.065 10.555 77.4775 10.9545V14.58C77.0433 14.263 76.557 13.9851 76.0229 13.7507C74.7247 13.1862 73.1833 12.9083 71.3858 12.9083C68.8631 12.9083 66.8962 13.5683 65.4981 14.8926C64.0957 16.2169 63.3966 17.9754 63.3966 20.1637C63.3966 21.6226 63.731 22.8991 64.3996 23.9802C65.0683 25.057 66.0061 25.9037 67.2045 26.5159C68.4072 27.1195 69.801 27.4277 71.3814 27.4277C71.4726 27.4277 71.5638 27.4277 71.655 27.4277C73.3353 27.3973 74.7985 27.0934 76.0447 26.5159C76.2835 26.403 76.5136 26.2815 76.7307 26.1556C76.735 26.1512 76.7437 26.1469 76.748 26.1425C77.8683 25.6258 78.9755 24.9702 80.0696 24.2147C80.0826 24.2104 80.0913 24.2017 80.1087 24.1887C82.106 22.8166 84.0729 21.1276 86.0484 19.3648C87.0601 18.4617 88.0761 17.5412 89.0965 16.638C91.033 14.9186 92.9999 13.26 95.0362 11.875C98.1537 9.75609 101.432 8.29286 105.014 8.29286C105.201 8.28852 105.392 8.28418 105.583 8.28418C106.985 8.28418 108.279 8.46654 109.464 8.83126C110.654 9.19598 111.688 9.75609 112.569 10.5203C113.455 11.2845 114.136 12.2527 114.623 13.4207C115.109 14.593 115.356 15.9868 115.356 17.5976V17.6106Z" fill="#DCF537"/>
<path id="Vector_8" opacity="0.57" d="M103.186 13.0952C102.166 13.1256 101.163 13.3036 100.177 13.6076C101.111 13.2949 102.109 13.1213 103.186 13.0952Z" fill="#F04438"/>
</g>
<path id="Vector_9" d="M34.2016 6.62578C36.0312 6.62578 37.5145 5.14255 37.5145 3.31289C37.5145 1.48323 36.0312 0 34.2016 0C32.3719 0 30.8887 1.48323 30.8887 3.31289C30.8887 5.14255 32.3719 6.62578 34.2016 6.62578Z" fill="#DCF537"/>
</g>
<path id="Vector_10" d="M28.4876 1.94971H18.6357V7.01674H28.4876V1.94971Z" fill="#FCFCFD"/>
</g>
<path id="Vector_11" d="M44.9131 2.58789V8.79685H50.8528C50.8528 8.79685 50.8528 8.43212 50.8528 2.58789H44.9131Z" fill="#FCFCFD"/>
</g>
</g>
</g>
<defs>
<clipPath id="clip0_337_1830">
<rect width="115.356" height="32" fill="white"/>
</clipPath>
</defs>
</svg>
